<?xml version="1.0" standalone="no"?>
<!DOCTYPE svg PUBLIC "-//W3C//DTD SVG 20010904//EN"
 "http://www.w3.org/TR/2001/REC-SVG-20010904/DTD/svg10.dtd">
<svg version="1.0" xmlns="http://www.w3.org/2000/svg"
 width="400.000000pt" height="400.000000pt" viewBox="0 0 400.000000 400.000000"
 preserveAspectRatio="xMidYMid meet">
<metadata>
Created by potrace 1.14, written by Peter Selinger 2001-2017
</metadata>
<g transform="translate(0.000000,400.000000) scale(0.100000,-0.100000)"
fill="#000000" stroke="none">
<path d="M1827 3194 c-3 -3 -50 -13 -93 -19 -54 -8 -166 -46 -229 -77 -137
-69 -238 -157 -331 -290 -35 -49 -123 -226 -137 -273 -3 -11 -13 -45 -21 -75
l-15 -54 25 29 c115 135 214 210 329 252 60 22 73 24 160 28 82 4 196 -13 250
-36 94 -41 150 -86 339 -273 128 -125 235 -214 306 -252 19 -10 37 -22 40 -26
21 -28 253 -103 353 -114 20 -2 56 -7 80 -10 65 -8 224 -5 273 6 24 6 47 9 51
8 23 -6 185 39 263 74 135 60 270 175 354 303 67 101 127 230 151 325 1 3 4
12 7 20 4 8 9 26 11 40 l6 25 -17 -25 c-23 -34 -138 -149 -182 -181 -64 -48
-155 -89 -235 -107 -35 -8 -187 -8 -230 1 -133 25 -219 82 -410 272 -116 115
-183 176 -229 210 -16 11 -33 25 -40 30 -34 32 -162 99 -236 124 -36 12 -72
25 -80 28 -19 7 -26 9 -70 17 -19 3 -46 8 -60 12 -25 6 -377 14 -383 8z"/>
<path d="M847 1994 c-2 -3 -24 -6 -49 -8 -24 -2 -64 -10 -88 -16 -25 -7 -47
-12 -50 -12 -38 -3 -240 -95 -240 -109 0 -5 -7 -9 -15 -9 -8 0 -15 -4 -15 -9
0 -5 -8 -12 -17 -15 -23 -8 -107 -88 -154 -146 -56 -70 -123 -188 -153 -270
-16 -41 -32 -82 -36 -91 -5 -9 -11 -34 -15 -55 l-6 -39 21 25 c50 58 100 111
100 106 0 -2 13 8 29 22 42 40 52 46 112 79 99 55 153 68 279 67 203 0 294
-49 521 -275 193 -192 257 -244 389 -316 62 -33 188 -82 235 -89 33 -6 51 -10
105 -20 44 -9 341 -10 395 -1 41 7 49 8 125 26 64 14 181 63 247 103 80 47
225 192 276 274 24 40 98 192 101 207 1 6 4 17 8 22 3 6 10 26 16 45 6 19 15
49 20 67 9 28 -2 19 -81 -61 -67 -68 -114 -105 -172 -137 -44 -24 -82 -44 -85
-45 -3 0 -24 -6 -47 -13 -121 -34 -298 -16 -411 44 -81 42 -123 78 -305 255
-150 147 -161 156 -257 222 -119 81 -289 146 -430 165 -49 7 -347 12 -353 7z"/>
</g>
</svg>
